<?xml version="1.0" encoding="utf-8"?>
<!-- Generator: Adobe Illustrator 25.2.3, SVG Export Plug-In . SVG Version: 6.00 Build 0)  -->
<svg version="1.1" xmlns="http://www.w3.org/2000/svg" xmlns:xlink="http://www.w3.org/1999/xlink" x="0px" y="0px"
	 viewBox="0 0 32 32" style="enable-background:new 0 0 32 32;" xml:space="preserve">
<style type="text/css">
	.st0{fill:#555A00;}
</style>
<g id="Layer_1">
	<g>
		<path class="st0" d="M17.6,6.2c0.1-0.1,0.2-0.3,0.3-0.4c0.1-0.1,0.2-0.3,0.3-0.4c0.7-1,1.5-1.9,2.4-2.8c0,0,0,0,0,0l-3-1.7V6.2z"
			/>
		<path class="st0" d="M14.5,13.5c-0.6-2.1-1.5-4-2.7-5.8c-2-1-4.3-1.5-6.6-1.5L3.9,6.9c0.9,1.8,1.6,3.8,1.9,5.8
			c1.1,0.3,2.2,0.6,3.3,1.1c-0.3-0.8-0.7-1.6-1.2-2.3c-0.5-0.7-0.4-1.7,0.3-2.2c0.7-0.5,1.7-0.4,2.2,0.3c1.3,1.7,2.1,3.8,2.3,6
			c0.6,0.4,1.2,0.8,1.8,1.2V13.5z"/>
		<path class="st0" d="M14.5,20.7c-3.7-3.4-8.7-5.4-13.6-5.6v8.2l1,0.6h12.6V20.7z"/>
		<path class="st0" d="M21.5,12.5c-1.6,0.3-3.1,1.3-4,2.6v1.6c1.8-1.3,3.7-2.4,5.7-3.1c1.7-2.4,4-4.4,6.7-5.6l-3.4-2
			c-2.1,0.2-4.2,0.7-6.2,1.7c-0.5,0.8-1,1.5-1.4,2.4c0.7-0.3,1.4-0.5,2.1-0.6c0.8-0.1,1.7,0.4,1.8,1.3C23,11.6,22.4,12.4,21.5,12.5z
			"/>
		<path class="st0" d="M21.9,28.7l2.9-1.7h-4.9C20.5,27.6,21.2,28.2,21.9,28.7z"/>
		<path class="st0" d="M31.2,10.9c-0.8,0.4-1.5,0.8-2.2,1.3c0.7-0.1,1.4-0.2,2.2-0.2V10.9z"/>
		<path class="st0" d="M17.6,29.1v2.1l1.4-0.8C18.5,30,18,29.5,17.6,29.1z"/>
		<path class="st0" d="M31.2,15.1c-5,0.2-9.9,2.3-13.6,5.6v3.1h12.6l1-0.6V15.1z"/>
		<path class="st0" d="M14.5,29c-0.4,0.5-0.9,0.9-1.4,1.3l1.4,0.8V29z"/>
		<path class="st0" d="M0.8,12c0.6,0,1.1,0.1,1.7,0.1c-0.3-1.2-0.8-2.4-1.4-3.6L0.8,8.7V12z"/>
		<path class="st0" d="M14.5,0.8l-3,1.7c0,0,0,0,0,0c0.9,0.9,1.7,1.9,2.5,2.9c0.1,0.1,0.2,0.2,0.3,0.4c0.1,0.1,0.2,0.2,0.3,0.4V0.8z
			"/>
		<path class="st0" d="M7.2,27l2.9,1.7c0.7-0.5,1.4-1.1,2-1.7H7.2z"/>
	</g>
</g>
<g id="Layer_2">
</g>
</svg>
